<svg width="24" height="25" viewBox="0 0 24 25" fill="none" xmlns="http://www.w3.org/2000/svg">
<g clip-path="url(#clip0_327_341)">
<path d="M4.64077 20.6278C4.42932 20.3917 4.17662 20.1959 3.89499 20.0499C3.60506 19.898 3.28888 19.8021 2.96318 19.7676C2.91684 19.7606 2.8701 19.7567 2.82324 19.7561H2.65861C2.13648 19.7496 1.62458 19.9007 1.19009 20.1895C0.766381 20.4697 0.431243 20.8643 0.223705 21.3271C0.153098 21.4913 0.0979825 21.6617 0.0590729 21.836C-0.020993 22.1906 -0.020993 22.5584 0.0590729 22.913C0.0979118 23.0879 0.153028 23.2588 0.223705 23.4235C0.434722 23.882 0.769283 24.273 1.19009 24.553C1.62303 24.8441 2.13482 24.9965 2.65696 24.9896C2.85958 24.9907 3.06168 24.9693 3.25951 24.9256C3.44446 24.8817 3.62474 24.8201 3.79786 24.7418L3.87523 24.6991C3.91509 24.6752 3.95696 24.6549 4.00035 24.6383L4.1156 24.594L4.17486 24.6843C4.22895 24.7774 4.30681 24.8545 4.4005 24.9079C4.49419 24.9612 4.60038 24.9889 4.70827 24.988C4.8715 24.9872 5.02801 24.923 5.14455 24.8091C5.20634 24.7562 5.25608 24.6907 5.29044 24.6171C5.32479 24.5435 5.34297 24.4634 5.34375 24.3822V22.3729C5.34138 22.0489 5.27654 21.7284 5.15278 21.4289C5.02945 21.1346 4.85626 20.8636 4.64077 20.6278ZM3.9592 22.9261C3.88647 23.0916 3.78315 23.242 3.65463 23.3693C3.52519 23.4964 3.37191 23.5968 3.20354 23.6648C3.02846 23.736 2.84108 23.7722 2.65202 23.7715C2.47037 23.7713 2.29082 23.7327 2.1252 23.6583C1.96038 23.5857 1.80943 23.4851 1.67905 23.3611C1.54708 23.2348 1.43989 23.085 1.36296 22.9195C1.28211 22.748 1.24049 22.5607 1.24113 22.3712C1.24142 22.1867 1.28069 22.0044 1.35637 21.836C1.43052 21.6687 1.53551 21.5166 1.66588 21.3879C1.79534 21.2598 1.94708 21.1564 2.11368 21.0825C2.28395 21.0082 2.4678 20.9698 2.65367 20.9698C2.83954 20.9698 3.0234 21.0082 3.19367 21.0825C3.36285 21.1552 3.51693 21.2588 3.64804 21.3879C3.77838 21.5167 3.88337 21.6687 3.95755 21.836C4.03323 22.0044 4.0725 22.1867 4.07279 22.3712C4.07496 22.5637 4.03625 22.7545 3.9592 22.931V22.9261Z" fill="white"/>
<path d="M9.01863 19.7697C8.67058 19.7828 8.32767 19.8579 8.00614 19.9914C7.69704 20.1188 7.4141 20.3019 7.17146 20.5315C6.93656 20.7611 6.74722 21.0329 6.61335 21.3326C6.4718 21.6382 6.3993 21.9711 6.40098 22.3077V24.3992C6.39816 24.4806 6.41253 24.5617 6.44316 24.6372C6.47379 24.7127 6.52 24.781 6.57879 24.8375C6.63393 24.8919 6.69958 24.9344 6.77176 24.9627C6.84393 24.9909 6.92111 25.0042 6.9986 25.0017C7.16316 25.0108 7.32467 24.9547 7.44804 24.8457C7.50581 24.796 7.55262 24.7349 7.58549 24.6662C7.61836 24.5976 7.63659 24.5229 7.63902 24.4468V22.3849C7.63428 22.1935 7.67018 22.0033 7.74437 21.8267C7.81486 21.6616 7.91595 21.5112 8.04235 21.3835C8.1722 21.2547 8.32635 21.1529 8.4959 21.0838C8.66544 21.0148 8.84701 20.9799 9.03014 20.9813C9.19741 20.9789 9.35752 20.9132 9.47795 20.7974C9.53517 20.7442 9.58056 20.6796 9.61119 20.6077C9.64181 20.5359 9.657 20.4585 9.65575 20.3804C9.64485 20.216 9.57399 20.0613 9.45654 19.9454C9.39969 19.8875 9.33141 19.842 9.25604 19.8118C9.18067 19.7816 9.09983 19.7673 9.01863 19.7697Z" fill="white"/>
<path d="M15.2728 23.5985C15.2398 23.5294 15.1921 23.4683 15.1328 23.4196C15.0117 23.3093 14.8523 23.2504 14.6883 23.2554H14.6768C14.5122 23.2524 14.3524 23.311 14.229 23.4196C14.1099 23.5334 13.968 23.6207 13.8125 23.6757C13.6323 23.7364 13.4428 23.7647 13.2527 23.7594C13.058 23.7604 12.8652 23.7213 12.6864 23.6445C12.5157 23.571 12.3616 23.4638 12.2337 23.3293C12.117 23.1957 12.0266 23.0414 11.967 22.8746C11.9044 22.7005 11.8775 22.5157 11.8879 22.3312V20.9834H13.2873C13.3673 20.9823 13.4462 20.9647 13.5191 20.9316C13.5919 20.8986 13.6571 20.8508 13.7104 20.7913C13.7694 20.7364 13.8167 20.6702 13.8497 20.5968C13.8827 20.5234 13.9006 20.4441 13.9024 20.3637C13.9043 20.2833 13.89 20.2033 13.8604 20.1284C13.8308 20.0536 13.7865 19.9854 13.7302 19.9278C13.6731 19.8695 13.6038 19.8246 13.5272 19.7962C13.4506 19.7678 13.3687 19.7567 13.2873 19.7636H11.8879V18.5882C11.891 18.5102 11.8761 18.4325 11.8444 18.3611C11.8128 18.2897 11.7651 18.2264 11.7052 18.1762C11.5699 18.0656 11.3993 18.0073 11.2245 18.012C11.0521 18.0072 10.884 18.0656 10.752 18.1762C10.692 18.2264 10.6444 18.2897 10.6127 18.3611C10.5811 18.4325 10.5662 18.5102 10.5692 18.5882V22.3213C10.5627 22.699 10.638 23.0736 10.7898 23.4196C10.9309 23.738 11.1353 24.0245 11.3907 24.2618C11.6481 24.4977 11.9489 24.6817 12.2765 24.8035C12.6214 24.9314 12.9868 24.9959 13.3548 24.9939C13.6938 24.9967 14.0299 24.9308 14.3426 24.8002C14.6568 24.6656 14.9436 24.4748 15.1888 24.2371C15.2414 24.1853 15.2809 24.1217 15.304 24.0516C15.3293 23.9772 15.3404 23.8987 15.337 23.8201C15.3307 23.7427 15.3088 23.6674 15.2728 23.5985Z" fill="white"/>
<path d="M23.8189 23.9536L22.2285 22.3743L23.8172 20.795C23.872 20.7379 23.9147 20.6704 23.943 20.5965C23.9712 20.5227 23.9845 20.4439 23.9818 20.3649C23.9849 20.2871 23.9718 20.2095 23.9435 20.1369C23.9152 20.0643 23.8722 19.9983 23.8172 19.943C23.7031 19.8264 23.5476 19.7591 23.3842 19.7559H23.3776C23.302 19.7562 23.2272 19.772 23.1578 19.8022C23.0884 19.8324 23.026 19.8764 22.9743 19.9315L21.3494 21.5124L19.759 19.9463C19.6394 19.8366 19.4864 19.7702 19.3244 19.7575C19.2429 19.7543 19.1618 19.7692 19.0868 19.8013C19.0119 19.8334 18.9451 19.8818 18.8914 19.943C18.7846 20.0632 18.7199 20.2147 18.707 20.3748C18.7017 20.4489 18.7138 20.5233 18.7424 20.592C18.771 20.6607 18.8152 20.7218 18.8717 20.7704L20.4966 22.3727L18.8717 23.9749C18.8149 24.03 18.7709 24.0966 18.7424 24.1703C18.714 24.244 18.7019 24.323 18.707 24.4017C18.7122 24.5605 18.7789 24.7112 18.8931 24.822C18.9489 24.8805 19.0173 24.9257 19.0932 24.9542C19.169 24.9826 19.2503 24.9935 19.331 24.9862C19.4918 24.982 19.6466 24.9242 19.7706 24.822L21.3543 23.2493L22.9447 24.7924C23.0016 24.8558 23.0715 24.9065 23.1495 24.941C23.2275 24.9755 23.312 24.9931 23.3974 24.9927C23.4764 24.996 23.5553 24.9831 23.6292 24.9549C23.7031 24.9266 23.7704 24.8837 23.8271 24.8286C23.8875 24.7724 23.9348 24.7038 23.9658 24.6276C23.9968 24.5513 24.0107 24.4692 24.0065 24.387C24.0059 24.3059 23.989 24.2257 23.9568 24.1513C23.9245 24.0768 23.8776 24.0096 23.8189 23.9536Z" fill="white"/>
<path d="M17.3687 19.9306C17.3294 19.8968 17.2863 19.8676 17.2403 19.8436C17.1507 19.7872 17.0466 19.7581 16.9407 19.7598C16.8348 19.7581 16.7306 19.7872 16.6411 19.8436C16.5951 19.8676 16.552 19.8968 16.5126 19.9306C16.454 19.9786 16.4067 20.039 16.3743 20.1074C16.3418 20.1758 16.325 20.2505 16.325 20.3262V24.4188C16.325 24.4994 16.3429 24.579 16.3773 24.652C16.4118 24.7249 16.4619 24.7893 16.5242 24.8408C16.637 24.9401 16.7836 24.993 16.9341 24.9885H16.9555C17.106 24.993 17.2526 24.9401 17.3654 24.8408C17.4277 24.7893 17.4778 24.7249 17.5123 24.652C17.5467 24.579 17.5646 24.4994 17.5646 24.4188V20.3262C17.5636 20.2499 17.5455 20.1747 17.5116 20.1063C17.4777 20.0378 17.4289 19.9778 17.3687 19.9306Z" fill="white"/>
<path d="M17.4015 18.2061C17.3489 18.1482 17.2845 18.1022 17.2127 18.0711C17.1409 18.0399 17.0633 18.0244 16.9849 18.0255C16.8247 18.0221 16.6695 18.081 16.552 18.1897C16.4931 18.2407 16.4455 18.3034 16.4123 18.3738C16.3792 18.4442 16.3611 18.5207 16.3593 18.5985C16.3526 18.6826 16.3637 18.7672 16.3921 18.8467C16.4205 18.9262 16.4654 18.9988 16.524 19.0598C16.6493 19.1729 16.8126 19.235 16.9817 19.2338C17.0594 19.2344 17.1364 19.2187 17.2076 19.1876C17.2789 19.1564 17.3427 19.1107 17.3949 19.0532C17.5078 18.94 17.5712 18.7868 17.5712 18.6272C17.5712 18.4675 17.5078 18.3144 17.3949 18.2012L17.4015 18.2061Z" fill="white"/>
</g>
<g clip-path="url(#clip1_327_341)">
<path d="M12.9983 6.64258C11.1983 6.64258 9.56201 8.27619 9.56201 10.2909C9.56449 11.032 9.7853 11.7539 10.1936 12.3559C11.0674 11.8067 12.0149 11.4187 13.0048 11.4187C13.9948 11.4187 14.9406 11.8067 15.8161 12.3559C16.2244 11.7539 16.4452 11.032 16.4477 10.2909C16.4411 8.27619 14.8032 6.64258 12.9983 6.64258Z" fill="white"/>
<path d="M12.9971 0C8.57898 0 4.99707 9.90385 4.99707 14.5275C4.99707 18.1152 7.15538 14.2625 10.1859 12.3551C9.75825 11.7281 9.53705 10.9697 9.55626 10.1967C9.57548 9.42356 9.83406 8.67856 10.2922 8.07622C10.1461 8.44606 10.071 8.84296 10.0713 9.24383C10.0713 10.0653 10.3796 10.8532 10.9282 11.434C11.4769 12.0149 12.2211 12.3413 12.9971 12.3413C13.773 12.3413 14.5172 12.0149 15.0659 11.434C15.6146 10.8532 15.9228 10.0653 15.9228 9.24383C15.9231 8.84296 15.848 8.44606 15.7019 8.07622C16.1601 8.67856 16.4187 9.42356 16.4379 10.1967C16.4571 10.9697 16.2359 11.7281 15.8083 12.3551C18.8404 14.2607 20.9971 18.1152 20.9971 14.5275C20.9971 9.90559 17.4151 0 12.9971 0Z" fill="white"/>
</g>
<defs>
<clipPath id="clip0_327_341">
<rect width="24" height="7" fill="white" transform="translate(0 18)"/>
</clipPath>
<clipPath id="clip1_327_341">
<rect width="16" height="16" fill="white" transform="translate(5)"/>
</clipPath>
</defs>
</svg>
