<?xml version="1.0" encoding="utf-8"?><svg viewBox="0 0 502.66 502.66" xmlns="http://www.w3.org/2000/svg" xmlns:xlink="http://www.w3.org/1999/xlink"><style>:root>svg{display:none}:root>svg:target{display:block}</style><svg viewBox="0 0 36 36" id="arr-l" xmlns="http://www.w3.org/2000/svg"><path d="M18 6l2.115 2.115-8.37 8.385H30v3H11.745l8.37 8.385L18 30 6 18 18 6z"/></svg><svg viewBox="0 0 36 36" id="arr-r" xmlns="http://www.w3.org/2000/svg"><path d="M18 6l-2.115 2.115 8.37 8.385H6v3h18.255l-8.37 8.385L18 30l12-12L18 6z"/></svg><svg viewBox="0 0 24 25" id="artix" xmlns="http://www.w3.org/2000/svg"><g clip-path="url(#ca)"><path d="M4.64 20.628a2.62 2.62 0 00-.745-.578 2.598 2.598 0 00-1.072-.294H2.66a2.595 2.595 0 00-1.469.433 2.67 2.67 0 00-.966 1.138c-.07.164-.126.335-.165.509-.08.355-.08.722 0 1.077.039.175.094.346.165.51.21.459.545.85.966 1.13a2.57 2.57 0 001.467.437c.203 0 .405-.02.603-.064.184-.044.365-.106.538-.184l.077-.043A.797.797 0 014 24.64l.116-.045.059.09a.61.61 0 00.533.304c.163 0 .32-.065.437-.179a.57.57 0 00.199-.427v-2.01a2.52 2.52 0 00-.191-.943 2.78 2.78 0 00-.512-.801zm-.68 2.298a1.383 1.383 0 01-.756.739 1.45 1.45 0 01-.552.107 1.29 1.29 0 01-.527-.114 1.56 1.56 0 01-.446-.297 1.468 1.468 0 01-.316-.442 1.31 1.31 0 01-.007-1.084 1.503 1.503 0 01.757-.753 1.35 1.35 0 011.08 0 1.481 1.481 0 01.765.754 1.36 1.36 0 01.002 1.095v-.005zm5.059-3.156a2.928 2.928 0 00-1.013.221c-.309.128-.592.31-.835.54a2.63 2.63 0 00-.558.802 2.293 2.293 0 00-.212.975v2.091a.58.58 0 00.37.564c.073.028.15.041.228.039a.627.627 0 00.449-.156.55.55 0 00.191-.4v-2.061a1.354 1.354 0 01.403-1.002 1.387 1.387 0 01.988-.402.66.66 0 00.448-.184.557.557 0 00.178-.417.674.674 0 00-.2-.435.587.587 0 00-.437-.175zm6.254 3.829a.523.523 0 00-.14-.18.631.631 0 00-.445-.164h-.011a.66.66 0 00-.448.165c-.12.113-.261.2-.416.256-.18.06-.37.089-.56.083a1.417 1.417 0 01-.567-.114 1.375 1.375 0 01-.452-.316 1.415 1.415 0 01-.346-.998v-1.348h1.4a.58.58 0 00.422-.192.604.604 0 00.02-.863.553.553 0 00-.443-.164h-1.4v-1.176a.51.51 0 00-.182-.412.729.729 0 00-.48-.164.705.705 0 00-.473.164.512.512 0 00-.183.412v3.733a2.572 2.572 0 00.822 1.94c.257.237.558.42.886.542.344.128.71.193 1.078.19a2.51 2.51 0 00.988-.193 2.8 2.8 0 00.846-.563.464.464 0 00.115-.185.634.634 0 00.033-.232.58.58 0 00-.064-.221zm8.546.355l-1.59-1.58 1.588-1.579a.593.593 0 00.165-.43.566.566 0 00-.165-.422.623.623 0 00-.433-.187h-.006a.557.557 0 00-.404.175l-1.625 1.581-1.59-1.566a.727.727 0 00-.435-.189.549.549 0 00-.433.186.74.74 0 00-.184.432.477.477 0 00.165.395l1.625 1.603-1.625 1.602a.547.547 0 00-.165.427.61.61 0 00.186.42.538.538 0 00.438.164.72.72 0 00.44-.164l1.583-1.573 1.59 1.543a.603.603 0 00.453.2.582.582 0 00.43-.163.566.566 0 00.18-.442.605.605 0 00-.188-.433zm-6.45-4.024a.678.678 0 00-.129-.086.546.546 0 00-.3-.084.546.546 0 00-.299.084.682.682 0 00-.128.087.512.512 0 00-.188.395v4.093a.547.547 0 00.2.422c.112.1.259.152.41.147h.02a.594.594 0 00.41-.147.55.55 0 00.2-.422v-4.093a.51.51 0 00-.196-.395zm.032-1.724a.55.55 0 00-.416-.18.618.618 0 00-.433.164.559.559 0 00-.193.409.597.597 0 00.165.46.676.676 0 00.458.175.554.554 0 00.413-.18.603.603 0 000-.853l.006.005z"/></g><g clip-path="url(#cb)"><path d="M12.998 6.643c-1.8 0-3.436 1.633-3.436 3.648.002.741.223 1.463.632 2.065.873-.55 1.82-.937 2.81-.937s1.937.388 2.812.937c.408-.602.63-1.324.632-2.065-.007-2.015-1.645-3.648-3.45-3.648z"/><path d="M12.997 0c-4.418 0-8 9.904-8 14.527 0 3.588 2.158-.264 5.189-2.172a3.674 3.674 0 01-.63-2.158 3.66 3.66 0 01.736-2.12c-.146.37-.221.766-.22 1.167 0 .821.308 1.61.856 2.19a2.85 2.85 0 002.07.907c.775 0 1.52-.326 2.068-.907a3.19 3.19 0 00.857-2.19c0-.401-.075-.798-.221-1.168.458.603.717 1.348.736 2.12a3.675 3.675 0 01-.63 2.16c3.032 1.905 5.19 5.76 5.19 2.171 0-4.621-3.583-14.527-8-14.527z"/></g><defs><clipPath id="ca"><path transform="translate(0 18)" d="M0 0h24v7H0z"/></clipPath><clipPath id="cb"><path transform="translate(5)" d="M0 0h16v16H0z"/></clipPath></defs></svg><svg viewBox="0 0 502.664 502.664" id="icon" xmlns="http://www.w3.org/2000/svg"><path d="M153.821 358.226L0 274.337v-46.463l153.821-83.414v54.574L46.636 250.523l107.185 53.431v54.272zm26.273 29.358L282.103 115.08h32.227L212.084 387.584h-31.99zm168.749-29.358v-54.272l107.164-52.999-107.164-52.59v-53.927l153.821 83.522v46.183l-153.821 84.083z"/></svg><svg viewBox="0 0 24 24" id="location" xmlns="http://www.w3.org/2000/svg"><path d="M12 12c.55 0 1.021-.196 1.413-.588.392-.392.588-.863.587-1.412 0-.55-.196-1.021-.588-1.413A1.922 1.922 0 0012 8c-.55 0-1.021.196-1.413.588A1.922 1.922 0 0010 10c0 .55.196 1.021.588 1.413.392.392.863.588 1.412.587zm0 10c-2.683-2.283-4.687-4.404-6.012-6.362C4.663 13.68 4.001 11.868 4 10.2c0-2.5.804-4.492 2.413-5.975C8.022 2.742 9.884 2 12 2c2.117 0 3.98.742 5.588 2.225C19.197 5.708 20.001 7.7 20 10.2c0 1.667-.663 3.48-1.988 5.438-1.325 1.959-3.33 4.08-6.012 6.362z"/></svg><svg viewBox="0 0 24 24" id="mail" xmlns="http://www.w3.org/2000/svg"><path d="M21.75 3.75H2.25a.75.75 0 00-.75.75v15a.75.75 0 00.75.75h19.5a.75.75 0 00.75-.75v-15a.75.75 0 00-.75-.75zm-9.29 9.592a.75.75 0 01-.92 0l-7.342-5.71.92-1.184L12 11.8l6.882-5.352.92 1.184-7.342 5.71z"/></svg><svg viewBox="0 0 24 24" id="phone" xmlns="http://www.w3.org/2000/svg"><path d="M21.739 16.414A5.275 5.275 0 0116.5 21C9.056 21 3 14.944 3 7.5a5.274 5.274 0 014.586-5.24 1.5 1.5 0 011.558.893l1.98 4.42v.011A1.5 1.5 0 0111.005 9a1.05 1.05 0 01-.053.072L9 11.386c.702 1.427 2.195 2.906 3.64 3.61l2.282-1.941a1.501 1.501 0 011.492-.184l.013.005 4.416 1.98a1.5 1.5 0 01.896 1.558z"/></svg></svg>