<svg width="128" height="128" viewBox="0 0 128 128" fill="none" xmlns="http://www.w3.org/2000/svg">
<path d="M64.0001 10.6667C53.4518 10.6667 43.1403 13.7947 34.3697 19.655C25.5991 25.5154 18.7632 33.8449 14.7265 43.5903C10.6899 53.3357 9.63368 64.0592 11.6916 74.4049C13.7494 84.7505 18.8289 94.2536 26.2877 101.712C33.7465 109.171 43.2496 114.251 53.5953 116.309C63.9409 118.367 74.6645 117.31 84.4099 113.274C94.1553 109.237 102.485 102.401 108.345 93.6305C114.205 84.8599 117.333 74.5484 117.333 64.0001C117.333 56.9962 115.954 50.061 113.274 43.5903C110.593 37.1196 106.665 31.2402 101.712 26.2877C96.76 21.3353 90.8806 17.4068 84.4099 14.7265C77.9392 12.0463 71.0039 10.6667 64.0001 10.6667ZM53.3334 88.0001V40.0001L85.3334 64.0001L53.3334 88.0001Z" fill="white"/>
</svg>
